<?xml version="1.0" encoding="UTF-8"?>
<!DOCTYPE svg PUBLIC "-//W3C//DTD SVG 1.0//EN" "http://www.w3.org/TR/2001/REC-SVG-20010904/DTD/svg10.dtd">
<!-- Creator: CorelDRAW 2019 (64-Bit) -->
<svg xmlns="http://www.w3.org/2000/svg" xml:space="preserve" width="200mm" height="26.4mm" version="1.0" shape-rendering="geometricPrecision" text-rendering="geometricPrecision" image-rendering="optimizeQuality" fill-rule="evenodd" clip-rule="evenodd"
viewBox="0 0 9457.04 1248.33"
 xmlns:xlink="http://www.w3.org/1999/xlink"
 xmlns:xodm="http://www.corel.com/coreldraw/odm/2003">
 <defs>
   <linearGradient id="id0" gradientUnits="userSpaceOnUse" x1="6860.74" y1="1543.21" x2="6714.13" y2="-289.21">
    <stop offset="0" stop-opacity="1" stop-color="#1DA1F2"/>
    <stop offset="0.14902" stop-opacity="1" stop-color="#30ABF1"/>
    <stop offset="1" stop-opacity="1" stop-color="#43B6EF"/>
   </linearGradient>
   <clipPath id="id1">
    <path d="M-0 1248.33l9457.04 0 0 -1248.33 -9457.04 0 0 1248.33z"/>
   </clipPath>
    <clipPath id="id2">
     <path d="M-0 1248.33l9457.04 0 0 -1248.33 -9457.04 0 0 1248.33z"/>
    </clipPath>
    <clipPath id="id3">
     <path d="M-0 1248.33l9457.04 0 0 -1248.33 -9457.04 0 0 1248.33z"/>
    </clipPath>
    <clipPath id="id4">
     <path d="M5721.83 593.64l3664.44 0 -311.27 577.3 -3664.44 0 311.27 -577.3z"/>
    </clipPath>
 </defs>
 <g id="Capa_x0020_1">
  <metadata id="CorelCorpID_0Corel-Layer"/>
  <polygon fill="url(#id0)" points="-0,1248.33 9457.04,1248.33 9457.04,0 -0,0 "/>
  <g clip-path="url(#id1)">
   <g id="_2872152775952">
   </g>
   <g clip-path="url(#id2)">
    <image transform="matrix(-2.67044 -0 -0 -0.352498 14910.2 1509.44)" x="0" y="0" width="7686.68" height="4323.76" xlink:href="menbrete_Images\menbrete_ImgID1.png"/>
   </g>
   <g clip-path="url(#id3)">
   </g>
  </g>
  <polygon fill="none" points="-0,1248.33 9457.04,1248.33 9457.04,0 -0,0 "/>
  <g id="_2872152777648">
   <g clip-path="url(#id4)">
    <image x="5410.55" y="593.64" width="3975.72" height="577.3" xlink:href="menbrete_Images\menbrete_ImgID2.png"/>
   </g>
  </g>
  <g id="_2872152778192">
   <path fill="white" fill-rule="nonzero" d="M5882.77 1006.1l-348.19 0 0 -46.78 42.77 0 0 -392.3 -42.77 0 0 -50.12 255.96 0 0 50.12 -46.78 0 0 392.3c81.52,0 114.92,-56.43 134.33,-129.65l25.4 0 -20.72 176.44z"/>
   <path fill="white" fill-rule="nonzero" d="M7135.66 1103.82c-71.79,5.45 -145.41,-33.11 -154.18,-87.15 -9.61,-59.18 67.45,-107.87 121.52,-76.06 11.36,6.68 19.27,17.16 23.73,31.41 -25.48,-18.21 -62.15,4.96 -62.15,34.75 0,34.08 23.44,57.48 57.47,57.48 53.3,0 71.53,-70.76 59.93,-114.6 -7.12,-26.91 -23.77,-51.81 -53.91,-51.81 -18.37,0 -35.43,6.53 -46.78,21.39l-46.78 -23.39c8.02,-3.56 16.93,-6.9 26.73,-10.02 -51.3,-17.88 -96.91,-55.14 -96.91,-113.61 0,-58.87 47.29,-98.65 99.91,-114.61 39.13,-11.87 71.25,-11.12 109.94,-3.67l12.81 -69.32 60.74 18.32 -34.8 64.36c22.28,10.25 40.99,24.51 56.14,42.77 15.15,18.27 22.73,38.99 22.73,62.15 0,24.51 -8.8,46.89 -26.4,67.17 -17.6,20.27 -41.1,35.53 -70.51,45.78 41.88,11.16 95.82,44.05 96.63,93.05 1.3,79.04 -101.63,121.52 -155.86,125.63zm16.46 -408.15c-10.18,-30.98 -39.97,-29.61 -49.12,1.34 -10.07,34.04 -9.13,113.74 -1.33,149.03 7.76,35.15 43.22,34.52 50.79,-0.67 7.91,-36.74 11.07,-114.97 -0.33,-149.7z"/>
   <path fill="white" fill-rule="nonzero" d="M7572.26 782.89c-41.64,0 -67.5,-32.86 -67.5,-72.85 -8.02,8.02 -14.92,17.94 -20.72,29.74 -5.79,11.81 -8.69,24.84 -8.69,39.1l0 186.45 35.42 0 0 40.77 -182.45 0 0 -40.77 24.73 0 0 -255.29 -41.44 8.02 0 -49.46 163.74 -29.41 0 52.13c12.92,-12.92 27.17,-23.28 42.77,-31.08 15.59,-7.8 33.42,-11.69 53.47,-11.69 85.97,0 90.53,134.33 0.67,134.33z"/>
   <path fill="white" fill-rule="nonzero" d="M7780.9 1016.79l0 -30.07c-20.05,16.48 -42.1,24.73 -66.17,24.73 -68.24,0 -108.26,-57.68 -108.26,-121.64 0,-73.57 49.3,-124.97 123.64,-124.97 16.04,0 33.19,2.68 51.46,8.02 0,-35.93 -1.04,-84.88 -49.46,-84.88 -20.2,0 -41.78,10.89 -58.14,22.05l-15.37 -30.74c26.7,-23.5 68.13,-32.6 106.85,-31.18 66.22,2.43 138.42,39.97 138.42,114.71l0 175.76 48.78 -12.03 0 52.79 -171.75 37.43zm0 -219.2c-21.49,-6.71 -31.8,-6.54 -41.77,20.05 -12.32,32.86 -15.5,105.79 12.7,134 7.33,7.33 21.08,10.33 29.07,2.34l0 -156.39z"/>
   <path fill="white" fill-rule="nonzero" d="M8215.14 772.86c50.9,35.14 66.26,96.27 44.77,153.04 -19.89,52.56 -67.03,86.88 -123.64,86.88 -24.08,0 -46.41,-7.59 -69.5,-13.37 -15.03,-3.75 -27.51,-8.11 -24.73,11.36 0.44,3.12 1.33,7.13 2.67,12.03l-28.07 12.03 -48.12 -140.34 37.43 -16.71c9.8,31.19 24.61,56.47 44.44,75.85 24.04,23.49 74.43,39.95 105.26,22.72 19.2,-10.73 13.59,-30.06 -4.68,-37.09 -35.7,-15.03 -72.35,-29.39 -103.25,-53.13 -51.24,-39.36 -66.01,-99.04 -43.78,-159.39 19.25,-52.23 64.42,-81.53 119.63,-81.53 29.85,0 55.91,8.02 78.19,24.06l10.02 -40.1 36.75 9.36 -33.41 134.33zm-30.74 -9.36c0,-14.26 -3.01,-26.4 -9.02,-36.42 -16.29,-27.15 -47.19,-43.46 -78.53,-45.11 -18.71,0 -30.3,6.24 -34.75,18.71 0,6.24 11.25,14.48 33.75,24.73 22.5,10.25 52.02,22.94 88.55,38.09z"/>
   <path fill="white" fill-rule="nonzero" d="M8526.32 974.69c-34.66,38.59 -91.91,49.17 -139.68,31.08 -43.33,-16.41 -74.85,-55.22 -74.85,-102.59l0 -215.86 -33.41 0 0 -38.1c24.01,0 47.71,2.85 69.5,-9.35 34.88,-19.53 54.21,-60.61 55.47,-99.58l35.42 0 0 108.93 60.15 0 0 38.1 -60.15 0 0 214.52c0,28.69 -0.12,66.26 24.8,70.08 17.92,2.74 36.69,-8.98 46.71,-23.29l16.04 26.06z"/>
   <path fill="white" fill-rule="nonzero" d="M8651.31 842.36c-1.34,12.03 -2,23.17 -2,33.42 0,42.39 12.3,100.25 65.49,100.25 21.83,0 45,-9.58 69.5,-28.74l26.73 32.08c-33.4,26.18 -74.04,38.76 -116.28,38.76 -110.24,0 -184.45,-79.91 -184.45,-188.46 0,-97.82 62.77,-181.11 165.74,-181.11 49.9,0 87.99,13.7 114.28,41.1 26.29,27.4 39.88,68.28 40.76,122.63l18.72 0 0 30.07 -198.49 0zm74.18 -30.07c0,-32.84 -0.7,-95.67 -19.05,-123.64 -12.76,-19.44 -30.37,-13.62 -39.1,6.01 -13.58,30.55 -14.29,83.18 -16.04,117.62l74.18 0z"/>
   <path fill="white" fill-rule="nonzero" d="M8963.85 954.64c0,28.39 -17.12,56.81 -48.12,56.81 -30.66,0 -48.12,-28.47 -48.12,-56.81 0,-27.23 18.22,-58.14 48.12,-58.14 31.32,0 48.12,29.67 48.12,58.14z"/>
   <path fill="white" fill-rule="nonzero" d="M8955.83 793.91c-7.58,22.05 -12.26,43.11 -14.04,63.15l-34.08 -8.02c12.28,-81.02 4.99,-160.79 -2,-241.93 0,-124.27 135.86,-111.75 114.89,8.61 -9.23,52.95 -45.82,123.03 -64.76,178.19z"/>
   <path fill="white" d="M6081.93 648.19c88.71,0 160.63,81.77 160.63,182.63 0,100.86 -71.92,182.63 -160.63,182.63 -88.71,0 -160.63,-81.77 -160.63,-182.63 0,-100.86 71.92,-182.63 160.63,-182.63zm0 36.45c29.76,-0.96 31.6,65.45 31.6,146.18 0,80.73 4.72,145.86 -31.6,146.18 -36.32,0.32 -31.6,-65.45 -31.6,-146.18 0,-80.73 1.83,-145.22 31.6,-146.18z"/>
   <path fill="white" fill-rule="nonzero" d="M6586.52 1006.1l-348.19 0 0 -46.78 42.77 0 0 -392.3 -42.77 0 0 -50.12 255.96 0 0 50.12 -46.78 0 0 392.3c81.52,0 114.92,-56.43 134.33,-129.65l25.39 0 -20.72 176.44z"/>
   <path fill="white" d="M6785.78 648.19c88.71,0 160.63,81.77 160.63,182.63 0,100.86 -71.92,182.63 -160.63,182.63 -88.71,0 -160.63,-81.77 -160.63,-182.63 0,-100.86 71.92,-182.63 160.63,-182.63zm0 36.45c29.77,-0.96 31.6,65.45 31.6,146.18 0,80.73 4.72,145.86 -31.6,146.18 -36.32,0.32 -31.6,-65.45 -31.6,-146.18 0,-80.73 1.83,-145.22 31.6,-146.18z"/>
  </g>
  <g id="_2872152762128">
   <path fill="white" fill-rule="nonzero" d="M5882.77 1006.1l-348.19 0 0 -46.78 42.77 0 0 -392.3 -42.77 0 0 -50.12 255.96 0 0 50.12 -46.78 0 0 392.3c81.52,0 114.92,-56.43 134.33,-129.65l25.4 0 -20.72 176.44z"/>
   <path fill="white" fill-rule="nonzero" d="M7135.66 1103.82c-71.79,5.45 -145.41,-33.11 -154.18,-87.15 -9.61,-59.18 67.45,-107.87 121.52,-76.06 11.36,6.68 19.27,17.16 23.73,31.41 -25.48,-18.21 -62.15,4.96 -62.15,34.75 0,34.08 23.44,57.48 57.47,57.48 53.3,0 71.53,-70.76 59.93,-114.6 -7.12,-26.91 -23.77,-51.81 -53.91,-51.81 -18.37,0 -35.43,6.53 -46.78,21.39l-46.78 -23.39c8.02,-3.56 16.93,-6.9 26.73,-10.02 -51.3,-17.88 -96.91,-55.14 -96.91,-113.61 0,-58.87 47.29,-98.65 99.91,-114.61 39.13,-11.87 71.25,-11.12 109.94,-3.67l12.81 -69.32 60.74 18.32 -34.8 64.36c22.28,10.25 40.99,24.51 56.14,42.77 15.15,18.27 22.73,38.99 22.73,62.15 0,24.51 -8.8,46.89 -26.4,67.17 -17.6,20.27 -41.1,35.53 -70.51,45.78 41.88,11.16 95.82,44.05 96.63,93.05 1.3,79.04 -101.63,121.52 -155.86,125.63zm16.46 -408.15c-10.18,-30.98 -39.97,-29.61 -49.12,1.34 -10.07,34.04 -9.13,113.74 -1.33,149.03 7.76,35.15 43.22,34.52 50.79,-0.67 7.91,-36.74 11.07,-114.97 -0.33,-149.7z"/>
   <path fill="white" fill-rule="nonzero" d="M7572.26 782.89c-41.64,0 -67.5,-32.86 -67.5,-72.85 -8.02,8.02 -14.92,17.94 -20.72,29.74 -5.79,11.81 -8.69,24.84 -8.69,39.1l0 186.45 35.42 0 0 40.77 -182.45 0 0 -40.77 24.73 0 0 -255.29 -41.44 8.02 0 -49.46 163.74 -29.41 0 52.13c12.92,-12.92 27.17,-23.28 42.77,-31.08 15.59,-7.8 33.42,-11.69 53.47,-11.69 85.97,0 90.53,134.33 0.67,134.33z"/>
   <path fill="white" fill-rule="nonzero" d="M7780.9 1016.79l0 -30.07c-20.05,16.48 -42.1,24.73 -66.17,24.73 -68.24,0 -108.26,-57.68 -108.26,-121.64 0,-73.57 49.3,-124.97 123.64,-124.97 16.04,0 33.19,2.68 51.46,8.02 0,-35.93 -1.04,-84.88 -49.46,-84.88 -20.2,0 -41.78,10.89 -58.14,22.05l-15.37 -30.74c26.7,-23.5 68.13,-32.6 106.85,-31.18 66.22,2.43 138.42,39.97 138.42,114.71l0 175.76 48.78 -12.03 0 52.79 -171.75 37.43zm0 -219.2c-21.49,-6.71 -31.8,-6.54 -41.77,20.05 -12.32,32.86 -15.5,105.79 12.7,134 7.33,7.33 21.08,10.33 29.07,2.34l0 -156.39z"/>
   <path fill="white" fill-rule="nonzero" d="M8215.14 772.86c50.9,35.14 66.26,96.27 44.77,153.04 -19.89,52.56 -67.03,86.88 -123.64,86.88 -24.08,0 -46.41,-7.59 -69.5,-13.37 -15.03,-3.75 -27.51,-8.11 -24.73,11.36 0.44,3.12 1.33,7.13 2.67,12.03l-28.07 12.03 -48.12 -140.34 37.43 -16.71c9.8,31.19 24.61,56.47 44.44,75.85 24.04,23.49 74.43,39.95 105.26,22.72 19.2,-10.73 13.59,-30.06 -4.68,-37.09 -35.7,-15.03 -72.35,-29.39 -103.25,-53.13 -51.24,-39.36 -66.01,-99.04 -43.78,-159.39 19.25,-52.23 64.42,-81.53 119.63,-81.53 29.85,0 55.91,8.02 78.19,24.06l10.02 -40.1 36.75 9.36 -33.41 134.33zm-30.74 -9.36c0,-14.26 -3.01,-26.4 -9.02,-36.42 -16.29,-27.15 -47.19,-43.46 -78.53,-45.11 -18.71,0 -30.3,6.24 -34.75,18.71 0,6.24 11.25,14.48 33.75,24.73 22.5,10.25 52.02,22.94 88.55,38.09z"/>
   <path fill="white" fill-rule="nonzero" d="M8526.32 974.69c-34.66,38.59 -91.91,49.17 -139.68,31.08 -43.33,-16.41 -74.85,-55.22 -74.85,-102.59l0 -215.86 -33.41 0 0 -38.1c24.01,0 47.71,2.85 69.5,-9.35 34.88,-19.53 54.21,-60.61 55.47,-99.58l35.42 0 0 108.93 60.15 0 0 38.1 -60.15 0 0 214.52c0,28.69 -0.12,66.26 24.8,70.08 17.92,2.74 36.69,-8.98 46.71,-23.29l16.04 26.06z"/>
   <path fill="white" fill-rule="nonzero" d="M8651.31 842.36c-1.34,12.03 -2,23.17 -2,33.42 0,42.39 12.3,100.25 65.49,100.25 21.83,0 45,-9.58 69.5,-28.74l26.73 32.08c-33.4,26.18 -74.04,38.76 -116.28,38.76 -110.24,0 -184.45,-79.91 -184.45,-188.46 0,-97.82 62.77,-181.11 165.74,-181.11 49.9,0 87.99,13.7 114.28,41.1 26.29,27.4 39.88,68.28 40.76,122.63l18.72 0 0 30.07 -198.49 0zm74.18 -30.07c0,-32.84 -0.7,-95.67 -19.05,-123.64 -12.76,-19.44 -30.37,-13.62 -39.1,6.01 -13.58,30.55 -14.29,83.18 -16.04,117.62l74.18 0z"/>
   <path fill="white" fill-rule="nonzero" d="M8963.85 954.64c0,28.39 -17.12,56.81 -48.12,56.81 -30.66,0 -48.12,-28.47 -48.12,-56.81 0,-27.23 18.22,-58.14 48.12,-58.14 31.32,0 48.12,29.67 48.12,58.14z"/>
   <path fill="white" fill-rule="nonzero" d="M8955.83 793.91c-7.58,22.05 -12.26,43.11 -14.04,63.15l-34.08 -8.02c12.28,-81.02 4.99,-160.79 -2,-241.93 0,-124.27 135.86,-111.75 114.89,8.61 -9.23,52.95 -45.82,123.03 -64.76,178.19z"/>
   <path fill="white" d="M6081.93 648.19c88.71,0 160.63,81.77 160.63,182.63 0,100.86 -71.92,182.63 -160.63,182.63 -88.71,0 -160.63,-81.77 -160.63,-182.63 0,-100.86 71.92,-182.63 160.63,-182.63zm0 36.45c29.76,-0.96 31.6,65.45 31.6,146.18 0,80.73 4.72,145.86 -31.6,146.18 -36.32,0.32 -31.6,-65.45 -31.6,-146.18 0,-80.73 1.83,-145.22 31.6,-146.18z"/>
   <path fill="white" fill-rule="nonzero" d="M6586.52 1006.1l-348.19 0 0 -46.78 42.77 0 0 -392.3 -42.77 0 0 -50.12 255.96 0 0 50.12 -46.78 0 0 392.3c81.52,0 114.92,-56.43 134.33,-129.65l25.39 0 -20.72 176.44z"/>
   <path fill="white" d="M6785.78 648.19c88.71,0 160.63,81.77 160.63,182.63 0,100.86 -71.92,182.63 -160.63,182.63 -88.71,0 -160.63,-81.77 -160.63,-182.63 0,-100.86 71.92,-182.63 160.63,-182.63zm0 36.45c29.77,-0.96 31.6,65.45 31.6,146.18 0,80.73 4.72,145.86 -31.6,146.18 -36.32,0.32 -31.6,-65.45 -31.6,-146.18 0,-80.73 1.83,-145.22 31.6,-146.18z"/>
  </g>
 </g>
</svg>
